GSerif01-AuthorTextRegular03.ufo
<glyph name="B" format="1">
  <advance width="695"/>
  <unicode hex="0042"/>
  <outline>
    <contour>
      <point x="138" y="0" type="line"/>
      <point x="244" y="0" type="line"/>
      <point x="244" y="710" type="line"/>
      <point x="138" y="710" type="line"/>
    </contour>
    <contour>
      <point x="365" y="0" type="line" smooth="yes"/>
      <point x="536" y="0"/>
      <point x="632" y="76"/>
      <point x="632" y="199" type="curve" smooth="yes"/>
      <point x="632" y="312"/>
      <point x="535" y="384"/>
      <point x="355" y="384" type="curve"/>
      <point x="338" y="364" type="line"/>
      <point x="506" y="364"/>
      <point x="593" y="429"/>
      <point x="593" y="531" type="curve" smooth="yes"/>
      <point x="593" y="640"/>
      <point x="507" y="710"/>
      <point x="347" y="710" type="curve" smooth="yes"/>
      <point x="48" y="710" type="line"/>
      <point x="48" y="671" type="line"/>
      <point x="57" y="671" type="line" smooth="yes"/>
      <point x="101" y="671"/>
      <point x="138" y="664"/>
      <point x="138" y="635" type="curve"/>
      <point x="190" y="665" type="line"/>
      <point x="341" y="665" type="line" smooth="yes"/>
      <point x="444" y="665"/>
      <point x="487" y="614"/>
      <point x="487" y="528" type="curve" smooth="yes"/>
      <point x="487" y="448"/>
      <point x="449" y="393"/>
      <point x="342" y="393" type="curve" smooth="yes"/>
      <point x="194" y="393" type="line"/>
      <point x="194" y="350" type="line"/>
      <point x="356" y="350" type="line" smooth="yes"/>
      <point x="475" y="350"/>
      <point x="522" y="287"/>
      <point x="522" y="201" type="curve" smooth="yes"/>
      <point x="522" y="101"/>
      <point x="471" y="45"/>
      <point x="356" y="45" type="curve" smooth="yes"/>
      <point x="202" y="45" type="line"/>
      <point x="138" y="75" type="line"/>
      <point x="138" y="46"/>
      <point x="101" y="39"/>
      <point x="57" y="39" type="curve" smooth="yes"/>
      <point x="48" y="39" type="line"/>
      <point x="48" y="0" type="line"/>
    </contour>
  </outline>
</glyph>
<glyph name="J" format="1">
  <advance width="529"/>
  <unicode hex="004A"/>
  <outline>
    <contour>
      <point x="29" y="5" type="line"/>
      <point x="61" y="-3"/>
      <point x="101" y="-10"/>
      <point x="152" y="-10" type="curve" smooth="yes"/>
      <point x="294" y="-10"/>
      <point x="387" y="55"/>
      <point x="387" y="224" type="curve" smooth="yes"/>
      <point x="387" y="710" type="line"/>
      <point x="281" y="710" type="line"/>
      <point x="281" y="217" type="line" smooth="yes"/>
      <point x="281" y="70"/>
      <point x="235" y="34"/>
      <point x="154" y="34" type="curve" smooth="yes"/>
      <point x="105" y="34"/>
      <point x="66" y="43"/>
      <point x="29" y="54" type="curve"/>
    </contour>
    <contour>
      <point x="387" y="635" type="line"/>
      <point x="387" y="664"/>
      <point x="424" y="671"/>
      <point x="468" y="671" type="curve" smooth="yes"/>
      <point x="500" y="671" type="line"/>
      <point x="500" y="710" type="line"/>
      <point x="146" y="710" type="line"/>
      <point x="146" y="671" type="line"/>
      <point x="197" y="671" type="line" smooth="yes"/>
      <point x="244" y="671"/>
      <point x="281" y="664"/>
      <point x="281" y="635" type="curve"/>
    </contour>
  </outline>
</glyph>
<glyph name="S" format="1">
  <advance width="627"/>
  <unicode hex="0053"/>
  <outline>
    <contour>
      <point x="323" y="33" type="curve" smooth="yes"/>
      <point x="217" y="33"/>
      <point x="133" y="97"/>
      <point x="107" y="221" type="curve"/>
      <point x="48" y="221" type="line"/>
      <point x="48" y="0" type="line"/>
      <point x="103" y="0" type="line"/>
      <point x="112" y="142" type="line"/>
      <point x="110" y="147"/>
      <point x="87" y="156"/>
      <point x="83" y="161" type="curve"/>
      <point x="115" y="43"/>
      <point x="219" y="-10"/>
      <point x="331" y="-10" type="curve" smooth="yes"/>
      <point x="463" y="-10"/>
      <point x="573" y="66"/>
      <point x="573" y="198" type="curve" smooth="yes"/>
      <point x="573" y="341"/>
      <point x="458" y="381"/>
      <point x="347" y="411" type="curve" smooth="yes"/>
      <point x="247" y="438"/>
      <point x="157" y="457"/>
      <point x="157" y="549" type="curve" smooth="yes"/>
      <point x="157" y="624"/>
      <point x="204" y="676"/>
      <point x="296" y="676" type="curve" smooth="yes"/>
      <point x="389" y="676"/>
      <point x="460" y="617"/>
      <point x="477" y="523" type="curve"/>
      <point x="533" y="523" type="line"/>
      <point x="533" y="710" type="line"/>
      <point x="482" y="710" type="line"/>
      <point x="473" y="590" type="line"/>
      <point x="479" y="586"/>
      <point x="503" y="573"/>
      <point x="506" y="574" type="curve"/>
      <point x="466" y="681"/>
      <point x="381" y="720"/>
      <point x="285" y="720" type="curve" smooth="yes"/>
      <point x="158" y="720"/>
      <point x="63" y="643"/>
      <point x="63" y="531" type="curve"/>
      <point x="63" y="391"/>
      <point x="175" y="355"/>
      <point x="283" y="325" type="curve" smooth="yes"/>
      <point x="382" y="298"/>
      <point x="474" y="273"/>
      <point x="474" y="173" type="curve" smooth="yes"/>
      <point x="474" y="74"/>
      <point x="414" y="33"/>
    </contour>
  </outline>
</glyph>
<glyph name="T" format="1">
  <advance width="697"/>
  <unicode hex="0054"/>
  <outline>
    <contour>
      <point x="296" y="0" type="line"/>
      <point x="402" y="0" type="line"/>
      <point x="402" y="710" type="line"/>
      <point x="296" y="710" type="line"/>
    </contour>
    <contour>
      <point x="481" y="665" type="line" smooth="yes"/>
      <point x="567" y="665"/>
      <point x="602" y="654"/>
      <point x="609" y="614" type="curve" smooth="yes"/>
      <point x="625" y="499" type="line"/>
      <point x="667" y="499" type="line"/>
      <point x="667" y="710" type="line"/>
      <point x="30" y="710" type="line"/>
      <point x="30" y="499" type="line"/>
      <point x="72" y="499" type="line"/>
      <point x="89" y="614" type="line" smooth="yes"/>
      <point x="95" y="654"/>
      <point x="130" y="665"/>
      <point x="216" y="665" type="curve" smooth="yes"/>
    </contour>
    <contour>
      <point x="296" y="75" type="line"/>
      <point x="296" y="46"/>
      <point x="259" y="39"/>
      <point x="215" y="39" type="curve" smooth="yes"/>
      <point x="168" y="39" type="line"/>
      <point x="168" y="0" type="line"/>
      <point x="528" y="0" type="line"/>
      <point x="528" y="39" type="line"/>
      <point x="483" y="39" type="line" smooth="yes"/>
      <point x="439" y="39"/>
      <point x="402" y="46"/>
      <point x="402" y="75" type="curve"/>
    </contour>
  </outline>
</glyph>
<glyph name="U" format="1">
  <advance width="787"/>
  <unicode hex="0055"/>
  <outline>
    <contour>
      <point x="237" y="254" type="curve" smooth="yes"/>
      <point x="237" y="710" type="line"/>
      <point x="131" y="710" type="line"/>
      <point x="131" y="253" type="line" smooth="yes"/>
      <point x="131" y="72"/>
      <point x="241" y="-10"/>
      <point x="401" y="-10" type="curve" smooth="yes"/>
      <point x="546" y="-10"/>
      <point x="656" y="70"/>
      <point x="656" y="257" type="curve" smooth="yes"/>
      <point x="656" y="710" type="line"/>
      <point x="603" y="710" type="line"/>
      <point x="603" y="258" type="line" smooth="yes"/>
      <point x="603" y="111"/>
      <point x="532" y="52"/>
      <point x="422" y="52" type="curve" smooth="yes"/>
      <point x="311" y="52"/>
      <point x="237" y="107"/>
    </contour>
    <contour>
      <point x="41" y="710" type="line"/>
      <point x="41" y="671" type="line"/>
      <point x="50" y="671" type="line" smooth="yes"/>
      <point x="94" y="671"/>
      <point x="131" y="664"/>
      <point x="131" y="635" type="curve"/>
      <point x="237" y="661" type="line"/>
      <point x="237" y="668"/>
      <point x="284" y="671"/>
      <point x="320" y="671" type="curve" smooth="yes"/>
      <point x="329" y="671" type="line"/>
      <point x="329" y="710" type="line"/>
    </contour>
    <contour>
      <point x="746" y="710" type="line"/>
      <point x="503" y="710" type="line"/>
      <point x="503" y="671" type="line"/>
      <point x="520" y="671" type="line" smooth="yes"/>
      <point x="566" y="671"/>
      <point x="603" y="663"/>
      <point x="603" y="649" type="curve"/>
      <point x="656" y="616" type="line"/>
      <point x="656" y="656"/>
      <point x="693" y="671"/>
      <point x="734" y="671" type="curve" smooth="yes"/>
      <point x="746" y="671" type="line"/>
    </contour>
  </outline>
</glyph>
<glyph name="V" format="1">
  <advance width="695"/>
  <unicode hex="0056"/>
  <outline>
    <contour>
      <point x="627" y="710" type="line"/>
      <point x="577" y="710" type="line"/>
      <point x="349" y="0" type="line"/>
      <point x="399" y="0" type="line"/>
    </contour>
    <contour>
      <point x="168" y="710" type="line"/>
      <point x="64" y="710" type="line"/>
      <point x="297" y="0" type="line"/>
      <point x="375" y="0" type="line"/>
      <point x="383" y="43" type="line"/>
    </contour>
    <contour>
      <point x="679" y="710" type="line"/>
      <point x="464" y="710" type="line"/>
      <point x="464" y="671" type="line"/>
      <point x="486" y="671" type="line" smooth="yes"/>
      <point x="532" y="671"/>
      <point x="558" y="655"/>
      <point x="558" y="648" type="curve"/>
      <point x="596" y="613" type="line"/>
      <point x="608" y="650"/>
      <point x="635" y="671"/>
      <point x="670" y="671" type="curve"/>
      <point x="679" y="671" type="line"/>
    </contour>
    <contour>
      <point x="16" y="710" type="line"/>
      <point x="16" y="671" type="line"/>
      <point x="23" y="671" type="line"/>
      <point x="55" y="671"/>
      <point x="77" y="668"/>
      <point x="88" y="636" type="curve"/>
      <point x="185" y="659" type="line"/>
      <point x="185" y="666"/>
      <point x="228" y="671"/>
      <point x="264" y="671" type="curve" smooth="yes"/>
      <point x="277" y="671" type="line"/>
      <point x="277" y="710" type="line"/>
    </contour>
  </outline>
</glyph>
<glyph name="a" format="1">
  <advance width="602"/>
  <unicode hex="0061"/>
  <outline>
    <contour>
      <point x="433" y="308" type="line"/>
      <point x="179" y="292"/>
      <point x="53" y="240"/>
      <point x="53" y="130" type="curve" smooth="yes"/>
      <point x="53" y="42"/>
      <point x="130" y="-11"/>
      <point x="229" y="-11" type="curve" smooth="yes"/>
      <point x="323" y="-11"/>
      <point x="394" y="35"/>
      <point x="425" y="110" type="curve"/>
      <point x="456" y="153"/>
      <point x="415" y="137"/>
      <point x="406" y="136" type="curve"/>
      <point x="380" y="77"/>
      <point x="327" y="36"/>
      <point x="257" y="36" type="curve" smooth="yes"/>
      <point x="194" y="36"/>
      <point x="159" y="71"/>
      <point x="159" y="130" type="curve" smooth="yes"/>
      <point x="159" y="210"/>
      <point x="238" y="256"/>
      <point x="429" y="268" type="curve"/>
    </contour>
    <contour>
      <point x="408" y="0" type="line"/>
      <point x="581" y="0" type="line"/>
      <point x="581" y="37" type="line"/>
      <point x="577" y="37" type="line"/>
      <point x="532" y="37"/>
      <point x="497" y="44"/>
      <point x="497" y="73" type="curve" smooth="yes"/>
      <point x="497" y="382" type="line" smooth="yes"/>
      <point x="497" y="511"/>
      <point x="390" y="550"/>
      <point x="285" y="550" type="curve" smooth="yes"/>
      <point x="185" y="550"/>
      <point x="112" y="506"/>
      <point x="81" y="462" type="curve"/>
      <point x="81" y="378" type="line"/>
      <point x="180" y="378" type="line"/>
      <point x="180" y="490" type="line"/>
      <point x="155" y="490"/>
      <point x="134" y="462"/>
      <point x="135" y="415" type="curve"/>
      <point x="162" y="465"/>
      <point x="202" y="506"/>
      <point x="284" y="506" type="curve" smooth="yes"/>
      <point x="352" y="506"/>
      <point x="399" y="476"/>
      <point x="399" y="382" type="curve" smooth="yes"/>
      <point x="399" y="99" type="line"/>
      <point x="408" y="99" type="line"/>
    </contour>
  </outline>
</glyph>
<glyph name="b" format="1">
  <advance width="640"/>
  <unicode hex="0062"/>
  <outline>
    <contour>
      <point x="487" y="274" type="curve" smooth="yes"/>
      <point x="487" y="133"/>
      <point x="442" y="42"/>
      <point x="350" y="42" type="curve" smooth="yes"/>
      <point x="274" y="42"/>
      <point x="219" y="87"/>
      <point x="173" y="180" type="curve"/>
      <point x="173" y="180"/>
      <point x="140" y="166"/>
      <point x="139" y="166" type="curve"/>
      <point x="201" y="42"/>
      <point x="260" y="-11"/>
      <point x="359" y="-11" type="curve" smooth="yes"/>
      <point x="504" y="-11"/>
      <point x="594" y="105"/>
      <point x="594" y="274" type="curve" smooth="yes"/>
      <point x="594" y="438"/>
      <point x="506" y="550"/>
      <point x="365" y="550" type="curve" smooth="yes"/>
      <point x="267" y="550"/>
      <point x="210" y="489"/>
      <point x="141" y="364" type="curve"/>
      <point x="142" y="364"/>
      <point x="173" y="347"/>
      <point x="173" y="347" type="curve"/>
      <point x="218" y="442"/>
      <point x="276" y="498"/>
      <point x="354" y="498" type="curve" smooth="yes"/>
      <point x="443" y="498"/>
      <point x="487" y="408"/>
    </contour>
    <contour>
      <point x="12" y="750" type="line"/>
      <point x="12" y="711" type="line"/>
      <point x="24" y="709" type="line" smooth="yes"/>
      <point x="74" y="700"/>
      <point x="98" y="693"/>
      <point x="98" y="664" type="curve" smooth="yes"/>
      <point x="98" y="-6" type="line"/>
      <point x="147" y="-6" type="line"/>
      <point x="191" y="104" type="line"/>
      <point x="198" y="112" type="line"/>
      <point x="198" y="750" type="line"/>
    </contour>
  </outline>
</glyph>
<glyph name="c" format="1">
  <advance width="571"/>
  <unicode hex="0063"/>
  <outline>
    <contour>
      <point x="321" y="36" type="curve" smooth="yes"/>
      <point x="216" y="36"/>
      <point x="151" y="130"/>
      <point x="151" y="271" type="curve" smooth="yes"/>
      <point x="151" y="410"/>
      <point x="215" y="505"/>
      <point x="310" y="505" type="curve" smooth="yes"/>
      <point x="378" y="505"/>
      <point x="420" y="474"/>
      <point x="445" y="424" type="curve"/>
      <point x="457" y="464"/>
      <point x="441" y="490"/>
      <point x="412" y="489" type="curve"/>
      <point x="412" y="367" type="line"/>
      <point x="512" y="367" type="line"/>
      <point x="512" y="462" type="line"/>
      <point x="481" y="511"/>
      <point x="409" y="550"/>
      <point x="309" y="550" type="curve" smooth="yes"/>
      <point x="159" y="550"/>
      <point x="45" y="433"/>
      <point x="45" y="271" type="curve" smooth="yes"/>
      <point x="45" y="106"/>
      <point x="160" y="-12"/>
      <point x="313" y="-12" type="curve" smooth="yes"/>
      <point x="407" y="-12"/>
      <point x="492" y="31"/>
      <point x="528" y="118" type="curve"/>
      <point x="484" y="140" type="line"/>
      <point x="453" y="74"/>
      <point x="393" y="36"/>
    </contour>
  </outline>
</glyph>
<glyph name="d" format="1">
  <advance width="656"/>
  <unicode hex="0064"/>
  <outline>
    <contour>
      <point x="542" y="750" type="line"/>
      <point x="356" y="750" type="line"/>
      <point x="356" y="711" type="line"/>
      <point x="368" y="709" type="line" smooth="yes"/>
      <point x="418" y="700"/>
      <point x="442" y="693"/>
      <point x="442" y="664" type="curve" smooth="yes"/>
      <point x="442" y="112" type="line"/>
      <point x="448" y="114" type="line"/>
      <point x="448" y="0" type="line"/>
      <point x="627" y="0" type="line"/>
      <point x="627" y="37" type="line"/>
      <point x="623" y="37" type="line"/>
      <point x="578" y="37"/>
      <point x="542" y="44"/>
      <point x="542" y="73" type="curve"/>
    </contour>
    <contour>
      <point x="152" y="267" type="curve" smooth="yes"/>
      <point x="152" y="406"/>
      <point x="199" y="498"/>
      <point x="292" y="498" type="curve" smooth="yes"/>
      <point x="368" y="498"/>
      <point x="423" y="454"/>
      <point x="467" y="359" type="curve"/>
      <point x="501" y="374" type="line"/>
      <point x="440" y="499"/>
      <point x="382" y="550"/>
      <point x="284" y="550" type="curve" smooth="yes"/>
      <point x="138" y="550"/>
      <point x="46" y="434"/>
      <point x="46" y="267" type="curve" smooth="yes"/>
      <point x="46" y="100"/>
      <point x="137" y="-11"/>
      <point x="277" y="-11" type="curve" smooth="yes"/>
      <point x="377" y="-11"/>
      <point x="431" y="50"/>
      <point x="499" y="175" type="curve"/>
      <point x="467" y="193" type="line"/>
      <point x="423" y="97"/>
      <point x="368" y="42"/>
      <point x="289" y="42" type="curve" smooth="yes"/>
      <point x="198" y="42"/>
      <point x="152" y="131"/>
    </contour>
  </outline>
</glyph>
<glyph name="i" format="1">
  <advance width="415"/>
  <unicode hex="0069"/>
  <outline>
    <contour>
      <point x="213" y="632" type="curve" smooth="yes"/>
      <point x="252" y="632"/>
      <point x="280" y="656"/>
      <point x="280" y="696" type="curve" smooth="yes"/>
      <point x="280" y="734"/>
      <point x="252" y="759"/>
      <point x="213" y="759" type="curve" smooth="yes"/>
      <point x="174" y="759"/>
      <point x="146" y="734"/>
      <point x="146" y="696" type="curve" smooth="yes"/>
      <point x="146" y="656"/>
      <point x="174" y="632"/>
    </contour>
    <contour>
      <point x="43" y="540" type="line"/>
      <point x="43" y="501" type="line"/>
      <point x="80" y="499" type="line" smooth="yes"/>
      <point x="140" y="496"/>
      <point x="165" y="483"/>
      <point x="165" y="454" type="curve" smooth="yes"/>
      <point x="165" y="0" type="line"/>
      <point x="266" y="0" type="line"/>
      <point x="266" y="540" type="line"/>
    </contour>
    <contour>
      <point x="388" y="0" type="line"/>
      <point x="388" y="37" type="line"/>
      <point x="370" y="37" type="line"/>
      <point x="304" y="37"/>
      <point x="266" y="44"/>
      <point x="266" y="73" type="curve"/>
      <point x="165" y="73" type="line"/>
      <point x="165" y="44"/>
      <point x="127" y="37"/>
      <point x="61" y="37" type="curve"/>
      <point x="43" y="37" type="line"/>
      <point x="43" y="0" type="line"/>
    </contour>
  </outline>
</glyph>
<glyph name="k" format="1">
  <advance width="649"/>
  <unicode hex="006B"/>
  <outline>
    <contour>
      <point x="350" y="319" type="line"/>
      <point x="343" y="297" type="line"/>
      <point x="563" y="509" type="line"/>
      <point x="551" y="532" type="line"/>
      <point x="514" y="532" type="line"/>
      <point x="269" y="297" type="line"/>
      <point x="269" y="275" type="line"/>
      <point x="509" y="0" type="line"/>
      <point x="590" y="0" type="line"/>
      <point x="604" y="33" type="line"/>
    </contour>
    <contour>
      <point x="43" y="0" type="line"/>
      <point x="303" y="0" type="line"/>
      <point x="303" y="37" type="line"/>
      <point x="299" y="37" type="line"/>
      <point x="266" y="37"/>
      <point x="228" y="42"/>
      <point x="228" y="61" type="curve"/>
      <point x="127" y="73" type="line"/>
      <point x="127" y="44"/>
      <point x="92" y="37"/>
      <point x="46" y="37" type="curve"/>
      <point x="43" y="37" type="line"/>
    </contour>
    <contour>
      <point x="651" y="0" type="line"/>
      <point x="651" y="37" type="line"/>
      <point x="646" y="37" type="line"/>
      <point x="624" y="37"/>
      <point x="594" y="44"/>
      <point x="567" y="74" type="curve"/>
      <point x="468" y="49" type="line"/>
      <point x="468" y="42"/>
      <point x="423" y="37"/>
      <point x="402" y="37" type="curve"/>
      <point x="395" y="37" type="line"/>
      <point x="395" y="0" type="line"/>
    </contour>
    <contour>
      <point x="607" y="540" type="line"/>
      <point x="396" y="540" type="line"/>
      <point x="396" y="504" type="line"/>
      <point x="404" y="504" type="line"/>
      <point x="434" y="504"/>
      <point x="471" y="496"/>
      <point x="471" y="491" type="curve"/>
      <point x="515" y="463" type="line"/>
      <point x="546" y="492"/>
      <point x="572" y="504"/>
      <point x="602" y="504" type="curve"/>
      <point x="607" y="504" type="line"/>
    </contour>
    <contour>
      <point x="127" y="0" type="line"/>
      <point x="228" y="0" type="line"/>
      <point x="228" y="750" type="line"/>
      <point x="43" y="750" type="line"/>
      <point x="43" y="711" type="line"/>
      <point x="55" y="709" type="line" smooth="yes"/>
      <point x="104" y="700"/>
      <point x="127" y="693"/>
      <point x="127" y="664" type="curve" smooth="yes"/>
    </contour>
  </outline>
</glyph>
<glyph name="o" format="1">
  <advance width="609"/>
  <unicode hex="006F"/>
  <outline>
    <contour>
      <point x="304" y="-12" type="curve"/>
      <point x="462" y="-12"/>
      <point x="564" y="102"/>
      <point x="564" y="269" type="curve" smooth="yes"/>
      <point x="564" y="437"/>
      <point x="462" y="550"/>
      <point x="304" y="550" type="curve" smooth="yes"/>
      <point x="146" y="550"/>
      <point x="45" y="436"/>
      <point x="45" y="269" type="curve" smooth="yes"/>
      <point x="45" y="102"/>
      <point x="146" y="-12"/>
    </contour>
    <contour>
      <point x="304" y="38" type="curve"/>
      <point x="203" y="38"/>
      <point x="151" y="129"/>
      <point x="151" y="269" type="curve" smooth="yes"/>
      <point x="151" y="411"/>
      <point x="203" y="500"/>
      <point x="304" y="500" type="curve" smooth="yes"/>
      <point x="406" y="500"/>
      <point x="458" y="411"/>
      <point x="458" y="269" type="curve" smooth="yes"/>
      <point x="458" y="129"/>
      <point x="406" y="38"/>
    </contour>
  </outline>
</glyph>
<glyph name="r" format="1">
  <advance width="466"/>
  <unicode hex="0072"/>
  <outline>
    <contour>
      <point x="439" y="549" type="line"/>
      <point x="431" y="550"/>
      <point x="419" y="552"/>
      <point x="404" y="552" type="curve" smooth="yes"/>
      <point x="318" y="552"/>
      <point x="266" y="496"/>
      <point x="209" y="389" type="curve"/>
      <point x="219" y="348" type="line"/>
      <point x="265" y="432"/>
      <point x="311" y="466"/>
      <point x="374" y="466" type="curve" smooth="yes"/>
      <point x="394" y="466"/>
      <point x="410" y="464"/>
      <point x="439" y="458" type="curve"/>
    </contour>
    <contour>
      <point x="45" y="0" type="line"/>
      <point x="330" y="0" type="line"/>
      <point x="330" y="37" type="line"/>
      <point x="322" y="37" type="line" smooth="yes"/>
      <point x="274" y="37"/>
      <point x="230" y="40"/>
      <point x="230" y="65" type="curve"/>
      <point x="130" y="73" type="line"/>
      <point x="130" y="44"/>
      <point x="94" y="37"/>
      <point x="49" y="37" type="curve"/>
      <point x="45" y="37" type="line"/>
    </contour>
    <contour>
      <point x="45" y="540" type="line"/>
      <point x="45" y="501" type="line"/>
      <point x="58" y="499" type="line" smooth="yes"/>
      <point x="107" y="491"/>
      <point x="130" y="483"/>
      <point x="130" y="454" type="curve" smooth="yes"/>
      <point x="130" y="0" type="line"/>
      <point x="230" y="0" type="line"/>
      <point x="230" y="390" type="line"/>
      <point x="222" y="399" type="line"/>
      <point x="222" y="540" type="line"/>
    </contour>
  </outline>
</glyph>
<glyph name="quoteright" format="1">
  <advance width="254"/>
  <unicode hex="2019"/>
  <outline>
    <contour>
      <point x="132" y="483" type="curve"/>
      <point x="158" y="517"/>
      <point x="189" y="580"/>
      <point x="189" y="644" type="curve" smooth="yes"/>
      <point x="189" y="692"/>
      <point x="163" y="715"/>
      <point x="125" y="715" type="curve" smooth="yes"/>
      <point x="91" y="715"/>
      <point x="66" y="692"/>
      <point x="66" y="657" type="curve" smooth="yes"/>
      <point x="66" y="616"/>
      <point x="102" y="592"/>
      <point x="154" y="602" type="curve"/>
      <point x="143" y="611"/>
      <point x="149" y="619"/>
      <point x="142" y="614" type="curve"/>
      <point x="141" y="579"/>
      <point x="101" y="524"/>
      <point x="69" y="483" type="curve"/>
      <point x="71" y="483"/>
      <point x="131" y="483"/>
    </contour>
  </outline>
</glyph>
<glyph name="C.alt" format="1">
  <advance width="724"/>
  <outline>
    <contour>
      <point x="53" y="355" type="curve" smooth="yes"/>
      <point x="53" y="138"/>
      <point x="196" y="-10"/>
      <point x="388" y="-10" type="curve" smooth="yes"/>
      <point x="539" y="-10"/>
      <point x="642" y="86"/>
      <point x="676" y="225" type="curve"/>
      <point x="619" y="242" type="line"/>
      <point x="592" y="131"/>
      <point x="514" y="46"/>
      <point x="395" y="46" type="curve" smooth="yes"/>
      <point x="259" y="46"/>
      <point x="167" y="167"/>
      <point x="167" y="355" type="curve" smooth="yes"/>
      <point x="167" y="543"/>
      <point x="261" y="668"/>
      <point x="403" y="668" type="curve" smooth="yes"/>
      <point x="495" y="668"/>
      <point x="556" y="621"/>
      <point x="584" y="560" type="curve"/>
      <point x="592" y="597"/>
      <point x="569" y="627"/>
      <point x="542" y="626" type="curve"/>
      <point x="542" y="507" type="line"/>
      <point x="650" y="507" type="line"/>
      <point x="650" y="609" type="line"/>
      <point x="620" y="661"/>
      <point x="531" y="720"/>
      <point x="402" y="720" type="curve" smooth="yes"/>
      <point x="201" y="720"/>
      <point x="53" y="569"/>
    </contour>
  </outline>
</glyph>
<glyph name="C.srf" format="1">
  <advance width="721"/>
  <outline>
    <contour>
      <point x="382" y="677" type="curve" smooth="yes"/>
      <point x="487" y="677"/>
      <point x="551" y="603"/>
      <point x="589" y="492" type="curve"/>
      <point x="646" y="492" type="line"/>
      <point x="646" y="710" type="line"/>
      <point x="594" y="710" type="line"/>
      <point x="580" y="558" type="line"/>
      <point x="583" y="555"/>
      <point x="602" y="557"/>
      <point x="609" y="552" type="curve"/>
      <point x="576" y="647"/>
      <point x="489" y="720"/>
      <point x="379" y="720" type="curve" smooth="yes"/>
      <point x="189" y="720"/>
      <point x="53" y="568"/>
      <point x="53" y="355" type="curve" smooth="yes"/>
      <point x="53" y="138"/>
      <point x="188" y="-10"/>
      <point x="382" y="-10" type="curve" smooth="yes"/>
      <point x="530" y="-10"/>
      <point x="625" y="88"/>
      <point x="659" y="229" type="curve"/>
      <point x="615" y="246" type="line"/>
      <point x="582" y="122"/>
      <point x="511" y="34"/>
      <point x="390" y="34" type="curve" smooth="yes"/>
      <point x="248" y="34"/>
      <point x="168" y="160"/>
      <point x="168" y="355" type="curve" smooth="yes"/>
      <point x="168" y="549"/>
      <point x="250" y="677"/>
    </contour>
  </outline>
</glyph>
<glyph name="E.alt" format="1">
  <advance width="644"/>
  <outline>
    <contour>
      <point x="138" y="0" type="line"/>
      <point x="243" y="0" type="line"/>
      <point x="243" y="710" type="line"/>
      <point x="138" y="710" type="line"/>
    </contour>
    <contour>
      <point x="208" y="386" type="line"/>
      <point x="208" y="341" type="line"/>
      <point x="435" y="341" type="line"/>
      <point x="435" y="386" type="line"/>
    </contour>
    <contour>
      <point x="48" y="710" type="line"/>
      <point x="48" y="671" type="line"/>
      <point x="57" y="671" type="line" smooth="yes"/>
      <point x="101" y="670"/>
      <point x="138" y="664"/>
      <point x="138" y="635" type="curve"/>
      <point x="197" y="665" type="line"/>
      <point x="379" y="665" type="line" smooth="yes"/>
      <point x="466" y="665"/>
      <point x="501" y="654"/>
      <point x="508" y="614" type="curve" smooth="yes"/>
      <point x="525" y="521" type="line"/>
      <point x="568" y="521" type="line"/>
      <point x="568" y="710" type="line"/>
    </contour>
    <contour>
      <point x="48" y="0" type="line"/>
      <point x="595" y="0" type="line"/>
      <point x="595" y="213" type="line"/>
      <point x="551" y="213" type="line"/>
      <point x="531" y="101" type="line" smooth="yes"/>
      <point x="524" y="59"/>
      <point x="488" y="45"/>
      <point x="391" y="45" type="curve" smooth="yes"/>
      <point x="205" y="45" type="line"/>
      <point x="138" y="75" type="line"/>
      <point x="138" y="46"/>
      <point x="101" y="39"/>
      <point x="57" y="39" type="curve" smooth="yes"/>
      <point x="48" y="39" type="line"/>
    </contour>
    <contour>
      <point x="459" y="270" type="line"/>
      <point x="459" y="458" type="line"/>
      <point x="421" y="458" type="line"/>
      <point x="421" y="452" type="line"/>
      <point x="421" y="416"/>
      <point x="411" y="386"/>
      <point x="382" y="386" type="curve"/>
      <point x="382" y="341" type="line"/>
      <point x="411" y="341"/>
      <point x="421" y="311"/>
      <point x="421" y="275" type="curve"/>
      <point x="421" y="270" type="line"/>
    </contour>
  </outline>
</glyph>
<glyph name="G.alt" format="1">
  <advance width="760"/>
  <outline>
    <contour>
      <point x="168" y="355" type="curve" smooth="yes"/>
      <point x="168" y="543"/>
      <point x="267" y="667"/>
      <point x="409" y="667" type="curve" smooth="yes"/>
      <point x="502" y="667"/>
      <point x="566" y="618"/>
      <point x="592" y="561" type="curve"/>
      <point x="600" y="598"/>
      <point x="577" y="625"/>
      <point x="549" y="624" type="curve"/>
      <point x="549" y="506" type="line"/>
      <point x="658" y="506" type="line"/>
      <point x="658" y="609" type="line"/>
      <point x="624" y="660"/>
      <point x="537" y="720"/>
      <point x="409" y="720" type="curve" smooth="yes"/>
      <point x="206" y="720"/>
      <point x="53" y="569"/>
      <point x="53" y="355" type="curve" smooth="yes"/>
      <point x="53" y="137"/>
      <point x="191" y="-10"/>
      <point x="403" y="-10" type="curve" smooth="yes"/>
      <point x="521" y="-10"/>
      <point x="628" y="59"/>
      <point x="667" y="118" type="curve"/>
      <point x="667" y="304" type="line"/>
      <point x="565" y="312" type="line"/>
      <point x="565" y="119" type="line"/>
      <point x="544" y="96"/>
      <point x="489" y="45"/>
      <point x="405" y="45" type="curve" smooth="yes"/>
      <point x="254" y="45"/>
      <point x="168" y="165"/>
    </contour>
    <contour>
      <point x="667" y="267" type="line"/>
      <point x="667" y="296"/>
      <point x="701" y="303"/>
      <point x="735" y="303" type="curve" smooth="yes"/>
      <point x="739" y="303" type="line"/>
      <point x="739" y="343" type="line"/>
      <point x="474" y="343" type="line"/>
      <point x="474" y="303" type="line"/>
      <point x="481" y="303" type="line" smooth="yes"/>
      <point x="529" y="303"/>
      <point x="565" y="296"/>
      <point x="565" y="267" type="curve"/>
    </contour>
  </outline>
</glyph>
<glyph name="G.srf" format="1">
  <advance width="759"/>
  <outline>
    <contour>
      <point x="472" y="349" type="line"/>
      <point x="472" y="313" type="line"/>
      <point x="479" y="313" type="line" smooth="yes"/>
      <point x="528" y="313"/>
      <point x="566" y="306"/>
      <point x="566" y="277" type="curve"/>
      <point x="668" y="277" type="line"/>
      <point x="668" y="306"/>
      <point x="702" y="313"/>
      <point x="733" y="313" type="curve" smooth="yes"/>
      <point x="738" y="313" type="line"/>
      <point x="738" y="349" type="line"/>
    </contour>
    <contour>
      <point x="386" y="720" type="curve" smooth="yes"/>
      <point x="198" y="720"/>
      <point x="53" y="569"/>
      <point x="53" y="355" type="curve" smooth="yes"/>
      <point x="53" y="137"/>
      <point x="185" y="-10"/>
      <point x="394" y="-10" type="curve" smooth="yes"/>
      <point x="520" y="-10"/>
      <point x="633" y="58"/>
      <point x="668" y="112" type="curve"/>
      <point x="668" y="311" type="line"/>
      <point x="566" y="319" type="line"/>
      <point x="566" y="102" type="line"/>
      <point x="547" y="79"/>
      <point x="492" y="33"/>
      <point x="396" y="33" type="curve" smooth="yes"/>
      <point x="249" y="33"/>
      <point x="168" y="157"/>
      <point x="168" y="355" type="curve" smooth="yes"/>
      <point x="168" y="549"/>
      <point x="259" y="677"/>
      <point x="389" y="677" type="curve" smooth="yes"/>
      <point x="509" y="677"/>
      <point x="575" y="602"/>
      <point x="606" y="499" type="curve"/>
      <point x="663" y="499" type="line"/>
      <point x="663" y="710" type="line"/>
      <point x="611" y="710" type="line"/>
      <point x="599" y="567" type="line"/>
      <point x="601" y="564"/>
      <point x="625" y="564"/>
      <point x="632" y="560" type="curve"/>
      <point x="592" y="656"/>
      <point x="509" y="720"/>
    </contour>
  </outline>
</glyph>
<glyph name="Q.alt6" format="1">
  <advance width="754"/>
  <outline>
    <contour>
      <point x="377" y="-10" type="curve" smooth="yes"/>
      <point x="565" y="-10"/>
      <point x="701" y="135"/>
      <point x="701" y="355" type="curve" smooth="yes"/>
      <point x="701" y="574"/>
      <point x="565" y="720"/>
      <point x="377" y="720" type="curve" smooth="yes"/>
      <point x="188" y="720"/>
      <point x="53" y="575"/>
      <point x="53" y="355" type="curve" smooth="yes"/>
      <point x="53" y="136"/>
      <point x="188" y="-10"/>
    </contour>
    <contour>
      <point x="377" y="33" type="curve" smooth="yes"/>
      <point x="249" y="33"/>
      <point x="169" y="128"/>
      <point x="169" y="354" type="curve" smooth="yes"/>
      <point x="169" y="556"/>
      <point x="249" y="676"/>
      <point x="377" y="676" type="curve" smooth="yes"/>
      <point x="507" y="676"/>
      <point x="585" y="556"/>
      <point x="585" y="354" type="curve" smooth="yes"/>
      <point x="585" y="140"/>
      <point x="524" y="33"/>
    </contour>
    <contour>
      <point x="776" y="-52" type="curve"/>
      <point x="776" y="36" type="line"/>
      <point x="642" y="25"/>
      <point x="598" y="48"/>
      <point x="560" y="96" type="curve" smooth="yes"/>
      <point x="506" y="166"/>
      <point x="476" y="236"/>
      <point x="380" y="236" type="curve" smooth="yes"/>
      <point x="303" y="236"/>
      <point x="256" y="188"/>
      <point x="256" y="130" type="curve" smooth="yes"/>
      <point x="256" y="93"/>
      <point x="267" y="61"/>
      <point x="306" y="40" type="curve"/>
      <point x="344" y="24" type="line"/>
      <point x="309" y="48"/>
      <point x="298" y="84"/>
      <point x="298" y="118" type="curve" smooth="yes"/>
      <point x="298" y="163"/>
      <point x="327" y="191"/>
      <point x="374" y="191" type="curve" smooth="yes"/>
      <point x="446" y="191"/>
      <point x="464" y="110"/>
      <point x="510" y="38" type="curve" smooth="yes"/>
      <point x="547" y="-18"/>
      <point x="611" y="-66"/>
    </contour>
  </outline>
</glyph>
<glyph name="W.alt" format="1">
  <advance width="1053"/>
  <outline>
    <contour>
      <point x="262" y="0" type="line"/>
      <point x="338" y="0" type="line"/>
      <point x="345" y="43" type="line"/>
      <point x="173" y="710" type="line"/>
      <point x="70" y="710" type="line"/>
    </contour>
    <contour>
      <point x="13" y="710" type="line"/>
      <point x="13" y="671" type="line"/>
      <point x="20" y="671" type="line" smooth="yes"/>
      <point x="54" y="671"/>
      <point x="82" y="670"/>
      <point x="90" y="637" type="curve"/>
      <point x="185" y="659" type="line"/>
      <point x="185" y="666"/>
      <point x="230" y="671"/>
      <point x="271" y="671" type="curve" smooth="yes"/>
      <point x="288" y="671" type="line"/>
      <point x="288" y="710" type="line"/>
    </contour>
    <contour>
      <point x="977" y="705" type="line"/>
      <point x="928" y="710" type="line"/>
      <point x="732" y="0" type="line"/>
      <point x="784" y="-5" type="line"/>
    </contour>
    <contour>
      <point x="1040" y="710" type="line"/>
      <point x="807" y="710" type="line"/>
      <point x="807" y="671" type="line"/>
      <point x="831" y="671" type="line" smooth="yes"/>
      <point x="882" y="671"/>
      <point x="911" y="655"/>
      <point x="911" y="647" type="curve"/>
      <point x="953" y="615" type="line"/>
      <point x="964" y="654"/>
      <point x="995" y="671"/>
      <point x="1031" y="671" type="curve" smooth="yes"/>
      <point x="1040" y="671" type="line"/>
    </contour>
    <contour>
      <point x="500" y="710" type="line"/>
      <point x="313" y="0" type="line"/>
      <point x="366" y="0" type="line"/>
      <point x="534" y="665" type="line"/>
      <point x="516" y="664" type="line"/>
      <point x="682" y="0" type="line"/>
      <point x="757" y="0" type="line"/>
      <point x="764" y="43" type="line"/>
      <point x="600" y="710" type="line"/>
    </contour>
    <contour>
      <point x="692" y="710" type="line"/>
      <point x="408" y="710" type="line"/>
      <point x="408" y="671" type="line"/>
      <point x="424" y="671" type="line" smooth="yes"/>
      <point x="455" y="671"/>
      <point x="488" y="666"/>
      <point x="488" y="659" type="curve"/>
      <point x="612" y="659" type="line"/>
      <point x="612" y="666"/>
      <point x="645" y="671"/>
      <point x="676" y="671" type="curve" smooth="yes"/>
      <point x="692" y="671" type="line"/>
    </contour>
  </outline>
</glyph>
<glyph name="a.alt" format="1">
  <advance width="587"/>
  <outline>
    <contour>
      <point x="429" y="322" type="line"/>
      <point x="181" y="296"/>
      <point x="54" y="259"/>
      <point x="54" y="133" type="curve" smooth="yes"/>
      <point x="54" y="44"/>
      <point x="130" y="-11"/>
      <point x="226" y="-11" type="curve" smooth="yes"/>
      <point x="316" y="-11"/>
      <point x="388" y="33"/>
      <point x="419" y="113" type="curve"/>
      <point x="445" y="144"/>
      <point x="407" y="135"/>
      <point x="397" y="136" type="curve"/>
      <point x="370" y="74"/>
      <point x="318" y="39"/>
      <point x="253" y="39" type="curve" smooth="yes"/>
      <point x="194" y="39"/>
      <point x="158" y="74"/>
      <point x="158" y="134" type="curve" smooth="yes"/>
      <point x="158" y="227"/>
      <point x="243" y="259"/>
      <point x="425" y="275" type="curve"/>
    </contour>
    <contour>
      <point x="288" y="500" type="curve" smooth="yes"/>
      <point x="349" y="500"/>
      <point x="392" y="472"/>
      <point x="392" y="379" type="curve" smooth="yes"/>
      <point x="392" y="100" type="line"/>
      <point x="401" y="101" type="line"/>
      <point x="401" y="0" type="line"/>
      <point x="573" y="0" type="line"/>
      <point x="573" y="40" type="line"/>
      <point x="571" y="40" type="line" smooth="yes"/>
      <point x="522" y="40"/>
      <point x="490" y="47"/>
      <point x="490" y="76" type="curve" smooth="yes"/>
      <point x="490" y="385" type="line" smooth="yes"/>
      <point x="490" y="512"/>
      <point x="386" y="551"/>
      <point x="289" y="551" type="curve" smooth="yes"/>
      <point x="177" y="551"/>
      <point x="89" y="494"/>
      <point x="78" y="379" type="curve"/>
      <point x="176" y="379" type="line"/>
      <point x="184" y="467"/>
      <point x="223" y="500"/>
    </contour>
  </outline>
</glyph>
<glyph name="f.alt" format="1">
  <advance width="441"/>
  <outline>
    <contour>
      <point x="43" y="37" type="line"/>
      <point x="43" y="0" type="line"/>
      <point x="372" y="0" type="line"/>
      <point x="372" y="37" type="line"/>
      <point x="341" y="37" type="line" smooth="yes"/>
      <point x="284" y="37"/>
      <point x="241" y="35"/>
      <point x="241" y="64" type="curve"/>
      <point x="152" y="73" type="line"/>
      <point x="152" y="44"/>
      <point x="116" y="37"/>
      <point x="65" y="37" type="curve"/>
    </contour>
    <contour>
      <point x="43" y="540" type="line"/>
      <point x="43" y="496" type="line"/>
      <point x="406" y="496" type="line"/>
      <point x="406" y="540" type="line"/>
    </contour>
    <contour>
      <point x="241" y="582" type="line" smooth="yes"/>
      <point x="241" y="671"/>
      <point x="291" y="713"/>
      <point x="357" y="713" type="curve" smooth="yes"/>
      <point x="387" y="713"/>
      <point x="409" y="712"/>
      <point x="426" y="708" type="curve"/>
      <point x="426" y="756" type="line"/>
      <point x="404" y="759"/>
      <point x="383" y="759"/>
      <point x="355" y="759" type="curve" smooth="yes"/>
      <point x="258" y="759"/>
      <point x="152" y="721"/>
      <point x="152" y="583" type="curve"/>
      <point x="152" y="-3" type="line"/>
      <point x="241" y="-3" type="line"/>
    </contour>
  </outline>
</glyph>
<glyph name="five.oldalt2" format="1">
  <advance width="619"/>
  <outline>
    <contour>
      <point x="98" y="528" type="line"/>
      <point x="521" y="528" type="line"/>
      <point x="521" y="354" type="line"/>
      <point x="467" y="354" type="line"/>
      <point x="467" y="450" type="line"/>
      <point x="467" y="450" type="line"/>
      <point x="139" y="450" type="line"/>
      <point x="157" y="477" type="line"/>
      <point x="157" y="227" type="line"/>
      <point x="98" y="227" type="line"/>
    </contour>
    <contour>
      <point x="264" y="244" type="line" smooth="yes"/>
      <point x="476" y="244"/>
      <point x="570" y="162"/>
      <point x="570" y="31" type="curve" smooth="yes"/>
      <point x="570" y="-119"/>
      <point x="451" y="-192"/>
      <point x="313" y="-192" type="curve" smooth="yes"/>
      <point x="166" y="-192"/>
      <point x="60" y="-120"/>
      <point x="43" y="25" type="curve"/>
      <point x="150" y="25" type="line"/>
      <point x="168" y="-89"/>
      <point x="225" y="-137"/>
      <point x="313" y="-137" type="curve" smooth="yes"/>
      <point x="396" y="-137"/>
      <point x="464" y="-90"/>
      <point x="464" y="30" type="curve" smooth="yes"/>
      <point x="464" y="150"/>
      <point x="392" y="193"/>
      <point x="243" y="193" type="curve" smooth="yes"/>
      <point x="98" y="193" type="line"/>
      <point x="98" y="244" type="line"/>
    </contour>
  </outline>
</glyph>
<glyph name="k.alt" format="1">
  <advance width="655"/>
  <outline>
    <contour>
      <point x="359" y="320" type="line"/>
      <point x="352" y="297" type="line"/>
      <point x="572" y="509" type="line"/>
      <point x="560" y="532" type="line"/>
      <point x="523" y="532" type="line"/>
      <point x="279" y="298" type="line"/>
      <point x="278" y="275" type="line"/>
      <point x="520" y="0" type="line"/>
      <point x="601" y="0" type="line"/>
      <point x="614" y="33" type="line"/>
    </contour>
    <contour>
      <point x="43" y="0" type="line"/>
      <point x="303" y="0" type="line"/>
      <point x="303" y="37" type="line"/>
      <point x="299" y="37" type="line"/>
      <point x="266" y="37"/>
      <point x="228" y="42"/>
      <point x="228" y="61" type="curve"/>
      <point x="127" y="73" type="line"/>
      <point x="127" y="44"/>
      <point x="92" y="37"/>
      <point x="46" y="37" type="curve"/>
      <point x="43" y="37" type="line"/>
    </contour>
    <contour>
      <point x="662" y="0" type="line"/>
      <point x="662" y="37" type="line"/>
      <point x="657" y="37" type="line"/>
      <point x="627" y="37"/>
      <point x="603" y="44"/>
      <point x="578" y="74" type="curve"/>
      <point x="477" y="49" type="line"/>
      <point x="477" y="42"/>
      <point x="435" y="37"/>
      <point x="413" y="37" type="curve"/>
      <point x="406" y="37" type="line"/>
      <point x="406" y="0" type="line"/>
    </contour>
    <contour>
      <point x="614" y="540" type="line"/>
      <point x="403" y="540" type="line"/>
      <point x="403" y="504" type="line"/>
      <point x="411" y="504" type="line"/>
      <point x="446" y="504"/>
      <point x="480" y="497"/>
      <point x="480" y="492" type="curve"/>
      <point x="523" y="461" type="line"/>
      <point x="554" y="492"/>
      <point x="572" y="504"/>
      <point x="609" y="504" type="curve"/>
      <point x="614" y="504" type="line"/>
    </contour>
    <contour>
      <point x="127" y="0" type="line"/>
      <point x="228" y="0" type="line"/>
      <point x="228" y="750" type="line"/>
      <point x="43" y="750" type="line"/>
      <point x="43" y="711" type="line"/>
      <point x="55" y="709" type="line" smooth="yes"/>
      <point x="104" y="700"/>
      <point x="127" y="693"/>
      <point x="127" y="664" type="curve" smooth="yes"/>
    </contour>
    <contour>
      <point x="310" y="262" type="line"/>
      <point x="310" y="311" type="line"/>
      <point x="185" y="311" type="line"/>
      <point x="185" y="262" type="line"/>
    </contour>
  </outline>
</glyph>
<glyph name="s.srf" format="1">
  <advance width="510"/>
  <outline>
    <contour>
      <point x="271" y="-23" type="curve" smooth="yes"/>
      <point x="376" y="-23"/>
      <point x="455" y="39"/>
      <point x="454" y="146" type="curve"/>
      <point x="454" y="258"/>
      <point x="390" y="284"/>
      <point x="303" y="305" type="curve"/>
      <point x="223" y="324"/>
      <point x="151" y="334"/>
      <point x="151" y="409" type="curve"/>
      <point x="151" y="458"/>
      <point x="171" y="492"/>
      <point x="235" y="492" type="curve"/>
      <point x="300" y="492"/>
      <point x="343" y="437"/>
      <point x="365" y="368" type="curve"/>
      <point x="368" y="363"/>
      <point x="429" y="386"/>
      <point x="436" y="387" type="curve"/>
      <point x="435" y="388"/>
      <point x="438" y="543"/>
      <point x="441" y="543" type="curve"/>
      <point x="449" y="543"/>
      <point x="390" y="548"/>
      <point x="390" y="548" type="curve" smooth="yes"/>
      <point x="390" y="547"/>
      <point x="381" y="452"/>
      <point x="381" y="453" type="curve" smooth="yes"/>
      <point x="386" y="443"/>
      <point x="397" y="427"/>
      <point x="407" y="422" type="curve" smooth="yes"/>
      <point x="393" y="498"/>
      <point x="330" y="568"/>
      <point x="240" y="568" type="curve" smooth="yes"/>
      <point x="139" y="568"/>
      <point x="80" y="501"/>
      <point x="83" y="413" type="curve"/>
      <point x="83" y="298"/>
      <point x="147" y="269"/>
      <point x="233" y="249" type="curve"/>
      <point x="310" y="230"/>
      <point x="382" y="206"/>
      <point x="382" y="140" type="curve"/>
      <point x="382" y="83"/>
      <point x="343" y="52"/>
      <point x="284" y="52" type="curve"/>
      <point x="200" y="52"/>
      <point x="141" y="107"/>
      <point x="117" y="187" type="curve"/>
      <point x="114" y="194"/>
      <point x="48" y="184"/>
      <point x="41" y="187" type="curve"/>
      <point x="39" y="182"/>
      <point x="36" y="5"/>
      <point x="38" y="5" type="curve" smooth="yes"/>
      <point x="32" y="5"/>
      <point x="85" y="6"/>
      <point x="85" y="2" type="curve" smooth="yes"/>
      <point x="85" y="1"/>
      <point x="94" y="136"/>
      <point x="96" y="134" type="curve" smooth="yes"/>
      <point x="91" y="141"/>
      <point x="74" y="146"/>
      <point x="64" y="140" type="curve" smooth="yes"/>
      <point x="98" y="22"/>
      <point x="193" y="-23"/>
    </contour>
  </outline>
</glyph>
